<?xml version="1.0" standalone="no"?><!DOCTYPE svg PUBLIC "-//W3C//DTD SVG 1.1//EN" "http://www.w3.org/Graphics/SVG/1.1/DTD/svg11.dtd"><svg t="1604596391399" class="icon" viewBox="0 0 1600 1024" version="1.1" xmlns="http://www.w3.org/2000/svg" p-id="113981" xmlns:xlink="http://www.w3.org/1999/xlink" width="625" height="400"><defs><style type="text/css"></style></defs><path d="M807.104 925.376c-87.808 34.528-188.48 50.912-325.792 50.912-168.16 0-343.616-33.824-420.096-96.736C21.376 846.784 7.2 812.224 2.72 786.656A63.04 63.04 0 0 1 0 768.288V255.712c0-4.768 0.512-9.408 1.504-13.856A107.008 107.008 0 0 1 0 224c0-123.712 214.912-224 480-224 159.2 0 300.288 36.16 387.616 91.84-41.28 22.432-79.04 50.56-112.224 83.328a392.32 392.32 0 0 0-1.856-0.768C683.2 145.184 585.408 128 480.288 128c-105.088 0-202.912 17.184-273.216 46.4-31.36 12.992-55.2 27.68-69.536 41.76-5.12 5.056-5.12 10.624 0 15.68 14.336 14.08 38.208 28.768 69.536 41.76C277.376 302.816 375.2 320 480.32 320c65.216 0 127.616-6.624 182.4-18.624a492.48 492.48 0 0 0-46.72 137.504A1000.32 1000.32 0 0 1 480 448c-139.072 0-264.32-27.616-352-71.68v131.68c45.12 34.08 147.488 86.72 347.2 83.648a1325.824 1325.824 0 0 0 135.84-8.576c4.864 44.224 15.584 86.72 31.296 126.624-47.264 6.784-103.04 11.424-167.136 11.424-173.28 0-294.368-38.272-347.2-58.976v105.056c25.632 21.504 117.664 80.864 352.576 80.864 95.744 0 169.152-10.88 224.48-25.28a498.88 498.88 0 0 0 102.048 102.592zM1104 896C1307.232 896 1472 731.232 1472 528S1307.232 160 1104 160 736 324.768 736 528 900.768 896 1104 896z m0 128C830.08 1024 608 801.92 608 528 608 254.08 830.08 32 1104 32 1377.92 32 1600 254.08 1600 528 1600 801.92 1377.92 1024 1104 1024z m31.36-701.568a266.752 266.752 0 0 1 67.392 11.52 178.56 178.56 0 0 1 61.632 32.256c-18.816 21.504-37.44 42.432-55.872 62.784-9.6-9.6-21.12-17.088-34.56-22.464a113.504 113.504 0 0 0-38.592-8.64v92.16c14.976 4.608 30.144 9.792 45.504 15.552s29.376 13.44 42.048 23.04 23.04 21.312 31.104 35.136c8.064 13.824 12.096 31.104 12.096 51.84 0 21.12-3.744 39.456-11.232 55.008a114.112 114.112 0 0 1-29.952 38.88 132.16 132.16 0 0 1-42.624 23.616 164.896 164.896 0 0 1-49.248 8.64v42.048h-42.624V741.76a257.536 257.536 0 0 1-75.456-14.112 190.624 190.624 0 0 1-66.816-38.88l30.24-31.392c10.176-10.56 20.256-21.216 30.24-31.968 4.992 5.76 10.944 11.04 17.856 15.84a149.696 149.696 0 0 0 43.2 20.736c7.296 2.112 14.208 3.168 20.736 3.168v-100.8a551.008 551.008 0 0 1-47.52-15.552 147.2 147.2 0 0 1-40.032-22.464 104.64 104.64 0 0 1-27.648-33.696c-6.912-13.248-10.368-29.472-10.368-48.672 0-18.816 3.84-35.616 11.52-50.4 7.68-14.784 17.664-27.264 29.952-37.44a138.464 138.464 0 0 1 41.472-23.616c15.36-5.568 30.528-8.736 45.504-9.504V283.264h42.048v39.168z m-42.048 74.304a52.64 52.64 0 0 0-27.936 11.808c-8.256 6.72-12.384 16.416-12.384 29.088 0 12.288 3.648 21.696 10.944 28.224 7.296 6.528 17.088 11.328 29.376 14.4v-83.52z m39.744 268.992c13.056-0.768 23.328-5.088 30.816-12.96 7.488-7.872 11.232-18.528 11.232-31.968 0-13.44-3.936-23.52-11.808-30.24a85.024 85.024 0 0 0-30.24-15.84v91.008z" ></path></svg>