<?xml version="1.0" standalone="no"?><!DOCTYPE svg PUBLIC "-//W3C//DTD SVG 1.1//EN" "http://www.w3.org/Graphics/SVG/1.1/DTD/svg11.dtd"><svg t="1604442262190" class="icon" viewBox="0 0 1041 1024" version="1.1" xmlns="http://www.w3.org/2000/svg" p-id="18589" width="130.125" height="128" xmlns:xlink="http://www.w3.org/1999/xlink"><defs><style type="text/css"></style></defs><path d="M0.341333 204.8c0 113.1008 92.0576 204.8 205.602134 204.8 113.5616 0 205.602133-91.6992 205.602133-204.8S319.505067 0 205.943467 0C92.398933 0 0.341333 91.6992 0.341333 204.8zM617.147733 204.8c0 73.1648 39.202133 140.782933 102.8096 177.3568a206.301867 206.301867 0 0 0 205.602134 0A204.6464 204.6464 0 0 0 1028.369067 204.8c0-113.1008-92.0576-204.8-205.6192-204.8-113.544533 0-205.602133 91.6992-205.602134 204.8zM822.749867 460.8c-104.9088-0.682667-193.536 77.431467-205.602134 181.248l-102.792533 102.4-102.8096-102.4c-6.519467-113.1008-103.867733-199.5264-217.429333-193.024C80.5888 455.5264-6.161067 552.4992 0.341333 665.6v358.4h411.204267V789.504L477.866667 855.552a51.541333 51.541333 0 0 0 72.465066 0l66.816-66.048V1024h411.221334V665.6c0-113.1008-92.0576-204.8-205.6192-204.8z" ></path></svg>