<?xml version="1.0" standalone="no"?><!DOCTYPE svg PUBLIC "-//W3C//DTD SVG 1.1//EN" "http://www.w3.org/Graphics/SVG/1.1/DTD/svg11.dtd"><svg t="1608760511963" class="icon" viewBox="0 0 1024 1024" version="1.1" xmlns="http://www.w3.org/2000/svg" p-id="1158" xmlns:xlink="http://www.w3.org/1999/xlink" width="400" height="400"><defs><style type="text/css"></style></defs><path d="M302.8 530.1c-0.8 2.1-0.2 4.4 1.3 5.9l199.6 216.8c2.8 2.7 6.5 4.4 10.6 4.4s7.9-1.7 10.6-4.4L724.4 536c1.5-1.5 2.1-3.8 1.3-5.9-0.8-2-2.7-3.4-4.8-3.4H590.7V98.1c0-4.1-1.5-8.2-4.5-11.3-2.9-3-6.9-4.7-11-4.7H444.3c-4 0-7.9 1.6-11 4.7-2.9 3-4.5 7.1-4.5 11.3v428.7H307.6c-2.1-0.1-4 1.2-4.8 3.3z" p-id="1159"></path><path d="M713.9 377.1h-53v62.7H741l116.1 267.9-157.7-2.1c-4.6 0-11.1 4.6-13.2 8.4l-43.8 109.9H386L342.2 714c-2-3.8-8.6-8.4-13.2-8.4H172.3l115.2-265.8h71.9v-62.7h-44.8l-89.9-0.3L88 685.8c-13.3 30.5-23.8 43.4-24 68.1l25.4 144.3c5.8 24.2 31.2 43.9 56.5 43.9h736.7c25.3 0 50.8-19.7 56.5-43.9L960 748.5c0.1-17.6-11.7-35.2-24-62.7l-132.3-309" p-id="1160"></path></svg>