<?xml version="1.0" standalone="no"?><!DOCTYPE svg PUBLIC "-//W3C//DTD SVG 1.1//EN" "http://www.w3.org/Graphics/SVG/1.1/DTD/svg11.dtd"><svg t="1604448186761" class="icon" viewBox="0 0 1024 1024" version="1.1" xmlns="http://www.w3.org/2000/svg" p-id="85448" xmlns:xlink="http://www.w3.org/1999/xlink" width="400" height="400"><defs><style type="text/css"></style></defs><path d="M302.592 855.552l179.2-89.6V619.52l-179.2 76.8v159.232z m-29.696-211.968l188.416-80.896-188.416-80.384L84.48 563.2l188.416 80.384z m507.904 211.968l179.2-89.6V619.52l-179.2 76.8v159.232z m-29.696-211.968l188.416-80.896-188.416-80.896-188.416 80.896 188.416 80.896zM541.696 506.88l179.2-76.8V305.664l-179.2 76.8V506.88zM512 329.728l205.824-88.064L512 153.088 306.176 241.664 512 329.728z m507.904 242.176v194.048c0 11.264-3.072 21.504-8.704 31.232s-13.824 16.896-24.064 22.016l-209.408 104.448c-7.68 4.096-16.384 6.656-26.624 6.656s-18.944-2.048-26.624-6.656L515.072 819.2c-1.536-0.512-2.56-1.024-3.072-2.048-0.512 0.512-1.536 1.024-3.072 2.048l-209.408 104.448c-7.68 4.096-16.384 6.656-26.624 6.656-9.728 0-18.944-2.048-26.624-6.656L36.864 819.2c-10.24-5.12-18.432-12.288-24.064-22.016s-8.704-19.968-8.704-31.232v-194.048c0-11.776 3.584-22.528 10.24-32.768 6.656-9.728 15.36-17.408 26.112-22.528l202.752-87.04V243.2c0-11.776 3.584-22.528 10.24-32.768 6.656-9.728 15.36-17.408 26.112-22.528l209.408-89.6c7.168-3.072 14.848-4.608 23.552-4.608 8.192 0 16.384 1.536 23.552 4.608l209.408 89.6c10.752 5.12 19.456 12.288 26.112 22.528 6.656 9.728 10.24 20.992 10.24 32.768V430.08l202.752 87.04c11.264 5.12 19.968 12.288 26.624 22.528 5.632 9.216 8.704 20.48 8.704 32.256z" ></path></svg>