<?xml version="1.0" standalone="no"?><!DOCTYPE svg PUBLIC "-//W3C//DTD SVG 1.1//EN" "http://www.w3.org/Graphics/SVG/1.1/DTD/svg11.dtd"><svg t="1604596174350" class="icon" viewBox="0 0 1228 1024" version="1.1" xmlns="http://www.w3.org/2000/svg" p-id="111670" xmlns:xlink="http://www.w3.org/1999/xlink" width="479.6875" height="400"><defs><style type="text/css"></style></defs><path d="M476.501333 820.8384l-241.117866 2.935467a136.533333 136.533333 0 0 1-138.171734-136.533334V99.7376H79.872a49.834667 49.834667 0 0 1 0-99.7376h1098.9568a47.3088 47.3088 0 0 1 47.240533 49.834667 52.6336 52.6336 0 0 1-52.565333 49.834666h-6.9632v577.9456a136.533333 136.533333 0 0 1-134.894933 136.533334l-235.9296 2.8672 121.514666 109.021866a50.7904 50.7904 0 0 1 3.754667 71.816534 51.063467 51.063467 0 0 1-72.021333 3.822933l-203.707734-182.8864-14.267733 0.2048-203.502933 182.6816a51.063467 51.063467 0 0 1-72.157867-3.8912 50.7904 50.7904 0 0 1 3.8912-71.748267l117.1456-105.130666zM393.966933 211.421867a51.2 51.2 0 0 1 51.2 51.2V533.162667a51.2 51.2 0 1 1-102.4 0V262.621867a51.2 51.2 0 0 1 51.2-51.2z m230.6048 31.1296a51.2 51.2 0 0 1 51.2 51.2v208.349866a51.2 51.2 0 0 1-102.4 0V293.751467a51.2 51.2 0 0 1 51.2-51.2z m225.28 62.122666a51.2 51.2 0 0 1 51.2 51.2V471.04a51.2 51.2 0 1 1-102.4 0V355.874133a51.2 51.2 0 0 1 51.2-51.2zM240.571733 101.7856a40.96 40.96 0 0 0-40.96 40.96v542.378667a40.96 40.96 0 0 0 40.96 40.96h787.797334a40.96 40.96 0 0 0 40.96-40.96V142.677333a40.96 40.96 0 0 0-40.96-40.96H240.571733z" ></path></svg>