<?xml version="1.0" standalone="no"?><!DOCTYPE svg PUBLIC "-//W3C//DTD SVG 1.1//EN" "http://www.w3.org/Graphics/SVG/1.1/DTD/svg11.dtd"><svg t="1608762467600" class="icon" viewBox="0 0 1184 1024" version="1.1" xmlns="http://www.w3.org/2000/svg" p-id="1924" xmlns:xlink="http://www.w3.org/1999/xlink" width="462.5" height="400"><defs><style type="text/css"></style></defs><path d="M112.768 917.248h819.2V262.528h-819.2v654.72z m820.736 85.312H111.2A83.872 83.872 0 0 1 27.424 918.784V260.96a83.872 83.872 0 0 1 83.776-83.776h822.304a83.872 83.872 0 0 1 83.776 83.776v657.824a83.872 83.872 0 0 1-83.776 83.776z" p-id="1925"></path><path d="M1136.768 802.144c-23.488 0-42.592-19.008-42.688-42.528l-2.464-667.264a6.912 6.912 0 0 0-6.88-7.04H223.68a42.656 42.656 0 1 1 0-85.312h861.056a92.32 92.32 0 0 1 92.224 92.192L1179.424 759.296a42.688 42.688 0 0 1-42.496 42.848h-0.16zM382.304 513.856a89.216 89.216 0 1 0 0.032-178.4 89.216 89.216 0 0 0 0 178.4" p-id="1926"></path><path d="M522.368 794.08c-66.368 0-100.928-30.4-128.704-54.848-22.976-20.256-38.176-33.6-72.32-33.6-58.976 0-136.256 27.776-229.664 82.56l-43.2-73.6c108.224-63.456 197.44-94.304 272.864-94.304 66.368 0 100.928 30.4 128.704 54.88 22.976 20.224 38.144 33.6 72.32 33.6 19.136 0 39.648-39.872 59.488-78.4 34.912-67.872 82.752-160.832 191.776-160.832 118.72 0 202.24 62.24 241.472 179.936l-80.96 27.008c-27.648-82.976-78.656-121.6-160.512-121.6-53.12 0-79.232 43.264-115.904 114.528-30.08 58.432-64.16 124.672-135.36 124.672" p-id="1927"></path></svg>