<?xml version="1.0" standalone="no"?><!DOCTYPE svg PUBLIC "-//W3C//DTD SVG 1.1//EN" "http://www.w3.org/Graphics/SVG/1.1/DTD/svg11.dtd"><svg t="1608762723044" class="icon" viewBox="0 0 1024 1024" version="1.1" xmlns="http://www.w3.org/2000/svg" p-id="3486" xmlns:xlink="http://www.w3.org/1999/xlink" width="400" height="400"><defs><style type="text/css"></style></defs><path d="M56.32 102.4 56.32 102.4c10.24 0 25.6-10.24 25.6-20.48l0 624.64c0 10.24 15.36 30.72 25.6 35.84l409.6 174.08c0 0-5.12 0-10.24 0l10.24 0 10.24 0c-5.12 0-5.12 0-10.24 0l409.6-174.08c10.24-5.12 25.6-25.6 25.6-35.84L952.32 87.04c0 10.24 15.36 20.48 25.6 20.48l-435.2 122.88L512 235.52 491.52 225.28 56.32 102.4 56.32 102.4zM76.8 30.72 76.8 30.72 512 153.6l435.2-122.88C988.16 15.36 1024 40.96 1024 87.04l0 624.64c0 40.96-30.72 92.16-71.68 107.52l-409.6 174.08c-10.24 5.12-20.48 5.12-30.72 5.12-10.24 0-20.48 0-30.72-5.12l-409.6-174.08C30.72 803.84 0 752.64 0 711.68L0 87.04C0 40.96 35.84 15.36 76.8 30.72L76.8 30.72 76.8 30.72z" p-id="3487"></path><path d="M276.48 552.96l-92.16 46.08 15.36-102.4L128 430.08l102.4-15.36 46.08-92.16 46.08 92.16 102.4 15.36L348.16 501.76l15.36 102.4L276.48 552.96 276.48 552.96 276.48 552.96zM645.12 435.2 875.52 358.4c20.48-5.12 30.72-30.72 25.6-51.2s-30.72-30.72-51.2-25.6L614.4 358.4c-20.48 5.12-30.72 30.72-25.6 51.2C599.04 430.08 624.64 440.32 645.12 435.2L645.12 435.2 645.12 435.2zM645.12 593.92l235.52-76.8c20.48-5.12 30.72-30.72 25.6-51.2s-30.72-30.72-51.2-25.6l-235.52 76.8c-20.48 5.12-30.72 30.72-25.6 51.2C599.04 588.8 624.64 599.04 645.12 593.92L645.12 593.92 645.12 593.92zM645.12 747.52l235.52-76.8c20.48-5.12 30.72-30.72 25.6-51.2s-30.72-30.72-51.2-25.6l-235.52 76.8c-20.48 5.12-30.72 30.72-25.6 51.2C599.04 742.4 624.64 752.64 645.12 747.52L645.12 747.52 645.12 747.52z" p-id="3488"></path></svg>