<?xml version="1.0" standalone="no"?><!DOCTYPE svg PUBLIC "-//W3C//DTD SVG 1.1//EN" "http://www.w3.org/Graphics/SVG/1.1/DTD/svg11.dtd"><svg t="1604594765969" class="icon" viewBox="0 0 1024 1024" version="1.1" xmlns="http://www.w3.org/2000/svg" p-id="89145" xmlns:xlink="http://www.w3.org/1999/xlink" width="400" height="400"><defs><style type="text/css"></style></defs><path d="M512 0c197.9392 0 358.4 160.4608 358.4 358.4v51.2h-76.8v-51.2c0-155.52-126.08-281.6-281.6-281.6C358.9376 76.8 234.4192 198.912 230.5024 351.0272L230.4 358.4v51.2H153.6v-51.2C153.6 160.4608 314.0608 0 512 0zM869.504 716.8h-77.056a280.576 280.576 0 0 1-74.752 166.7072v101.2224A358.0672 358.0672 0 0 0 869.5296 716.8z" fill="#bfbfbf" p-id="89146"></path><path d="M460.8 857.6h281.6v76.8a76.8 76.8 0 0 1-76.8 76.8h-204.8v-153.6zM819.2 358.4a153.6 153.6 0 0 1 153.6 153.6v102.4a153.6 153.6 0 0 1-153.6 153.6h-102.4V358.4z m25.6 76.8h-51.2v256h51.2a51.2 51.2 0 0 0 51.2-51.2v-153.6a51.2 51.2 0 0 0-51.2-51.2zM204.8 358.4a153.6 153.6 0 0 0-153.6 153.6v102.4a153.6 153.6 0 0 0 153.6 153.6h102.4V358.4z m-25.6 76.8h51.2v256H179.2a51.2 51.2 0 0 1-51.2-51.2v-153.6a51.2 51.2 0 0 1 51.2-51.2z" ></path></svg>