<?xml version="1.0" standalone="no"?><!DOCTYPE svg PUBLIC "-//W3C//DTD SVG 1.1//EN" "http://www.w3.org/Graphics/SVG/1.1/DTD/svg11.dtd"><svg t="1608762663404" class="icon" viewBox="0 0 1204 1024" version="1.1" xmlns="http://www.w3.org/2000/svg" p-id="2707" xmlns:xlink="http://www.w3.org/1999/xlink" width="470.3125" height="400"><defs><style type="text/css"></style></defs><path d="M486.82753438 794.28026a28.23277594 28.23277594 0 0 1-13.55154469-3.38812031 28.23277594 28.23277594 0 0 1-14.68123125-24.84371813V483.72066313a28.23277594 28.23277594 0 0 1 14.68123125-24.84465469 28.23277594 28.23277594 0 0 1 28.23183844 0L721.15816719 600.03988719a28.23277594 28.23277594 0 0 1 0 47.43087562L501.50782813 788.633705a28.23277594 28.23277594 0 0 1-14.68123125 5.646555z m28.23183843-259.45747594v179.5591425l138.057945-89.49738375z m561.54677063 457.08596906H116.69739031A81.02802 81.02802 0 0 1 32 915.3976025V334.37148219a81.02802 81.02802 0 0 1 84.69739031-76.51021313h959.90875313a81.02802 81.02802 0 0 1 84.69832687 76.50927563v581.02705781a81.02802 81.02802 0 0 1-84.69832687 76.51115063zM116.69739031 314.32588344c-14.96248031 0-28.23183844 9.31686281-28.23183843 20.04559875v581.02612031c0 10.72873594 13.26935813 20.04559875 28.23183843 20.04559875h959.90875313c14.96248031 0 28.23277594-9.31686281 28.23277593-20.04559875V334.37148219c0-10.72873594-13.26935813-20.04559875-28.23277593-20.04559875z m931.67691469 0H144.92922875a28.23277594 28.23277594 0 0 1-28.23277594-28.23277594v-56.46555188a84.69739031 84.69739031 0 0 1 84.69832688-84.69738937h790.51303593a84.69739031 84.69739031 0 0 1 84.69739032 84.69832687v56.46555188a28.23277594 28.23277594 0 0 1-28.23277594 28.23183844z m-875.21136375-56.46555188h846.97765031v-28.23183844a28.23277594 28.23277594 0 0 0-28.23183843-28.23277593H201.39571719a28.23277594 28.23277594 0 0 0-28.23277594 28.23277593z m762.28026-56.46555187H257.86126906a28.23277594 28.23277594 0 0 1-28.23277594-28.23183844v-56.46555094A84.69739031 84.69739031 0 0 1 314.32588344 32h564.65176687a84.69739031 84.69739031 0 0 1 84.69832688 84.69739031v56.46555094a28.23277594 28.23277594 0 0 1-28.23277594 28.23277594z m-649.34915625-56.46461344h621.11638031V116.69739031a28.23277594 28.23277594 0 0 0-28.232775-28.23183843H314.32588344a28.23277594 28.23277594 0 0 0-28.23277594 28.23183843z" p-id="2708"></path></svg>